<?xml version="1.0" encoding="UTF-8"?>
<svg id="Layer_1" data-name="Layer 1" xmlns="http://www.w3.org/2000/svg" viewBox="0 0 4000 4000">
  <defs>
    <style>
      .cls-1 {
        fill: #2f4225;
      }

      .cls-2 {
        fill: #77bf43;
      }

      .cls-2, .cls-3 {
        fill-rule: evenodd;
      }

      .cls-3 {
        fill: #4f7a40;
      }
    </style>
  </defs>
  <path class="cls-2" d="m1261.88,2283.84c151.94-93.46,344.04-140.52,482-153.77,104.06-9.99,245.64-14.68,360.48,8.29,63.84,12.77,120.55,34.3,160.76,68.37,3.79,3.21,7.43,6.52,10.92,9.93,19.82-124.02,87.09-216.02,156.77-287.6,101.95-104.73,211.74-201.73,321.52-298.73,52.82-46.66,105.64-93.34,161.87-144.93,7.75-7.11,13.02-13.79,16.08-19.91,2.8-5.6,3.72-10.67,3.04-15.04-.66-4.27-3.11-8.7-7.02-12.97-4.4-4.8-10.23-9.07-17.26-12.58-27.72-13.86-107.33-35.79-181-56.08-50.44-13.89-98.22-27.06-128-37.38-54.5-18.88-101.53-60.05-151.52-103.82-70.5-61.72-147.87-129.45-245.62-122.78-42.3,2.89-123.23,21.7-178.37,82.69-3.07,3.4-6.07,6.94-8.97,10.63,131-60.27,266.94-71.52,383.32,35.79,201.01,220.47-220.14,522.18-499.66,133.77-65.01,49.58-140.9,115.64-189.54,160l-8.34,7.6c-129.53,117.99-355.71,324.02-430.73,689.76-4.19,20.41-7.74,39.98-10.71,58.75Z"/>
  <path class="cls-2" d="m1717.22,2193.22c-132.34,12.7-317.74,58.54-459.14,150.08-14.52,9.4-28.56,19.29-42,29.67-3.45,90.79,10.77,157.27,35.77,206.92,36.59,72.66,98.65,110.67,161.31,137.3,74.79,31.79,262.28,27.54,441.67-40.31,126.3-47.77,246.48-127.36,316.13-248.54,21.3-37.06,32.78-68.38,36.17-94.74,4.68-36.41-7.68-63.42-31.02-83.2-28.12-23.82-71.84-39.7-122.81-49.89-105.91-21.18-238.35-16.68-336.06-7.3Z"/>
  <path class="cls-3" d="m2005.27,1473.06c24.64,20.37,52.88,35.96,82.41,46.19,29.72,10.3,60.83,15.35,90.99,14.58,51.74-1.32,100.43-20.17,133.01-59.57l.06.05c29.2-36.22,38.74-77.77,36.57-116.53-2.85-50.99-24.84-96.11-49.06-118.44-90.93-83.84-204.12-65.95-313.56-10.18-20.04,10.21-39.99,21.68-59.7,34.05-1.58,14.53-2.23,30.03-1.81,46.57,1.75,68.88,34.41,124.69,81.08,163.28Z"/>
  <path class="cls-1" d="m1249.31,3035.37c-.86-.45-300.32-152.89-245.59-481.25,17.69-106.14,74.94-191.96,153.03-260.26,3.53-43.55,10.4-91.22,21.13-143.5,80.6-392.91,319.6-610.61,456.47-735.29l8.34-7.6c64.41-58.74,147.52-134.15,238.7-196.03,12.99-57.78,38.71-103.01,70.54-138.22,73.79-81.61,179.89-106.63,235.12-110.4,132.36-9.04,223.56,70.8,306.66,143.56,43.7,38.26,84.82,74.26,123.47,87.65,27.03,9.36,73.58,22.19,122.73,35.73,77.55,21.36,161.35,44.45,196.51,62.02,16.58,8.29,30.66,18.72,41.68,30.73,15.05,16.41,24.81,35.85,28.14,57.18,3.32,21.24.05,43.5-10.96,65.52-7.67,15.34-18.95,30.32-34.22,44.32-50.84,46.64-107.01,96.28-163.19,145.91-108.17,95.57-216.34,191.15-316.89,294.44-69.98,71.88-137.1,166.87-138.84,298.11-1.8,136.09,64.74,313.44,264.97,549.18l1.48,1.82c136.63,181.23,303.31,101.58,303.79,101.36l35.31,76.55c-.66.3-227.96,108.76-405.86-126.4-141.74-167.1-220.95-309.44-257.81-431.29-5.21,10.95-11.13,22.21-17.79,33.79-80.78,140.54-217.04,231.66-359.36,285.49-199.31,75.39-414.79,77.06-504.36,39-77.81-33.07-155.43-81.36-203.54-176.9-22.21-44.1-37.61-97.94-42.99-164.59-34.94,44.17-59.57,94.66-69.12,151.97-44.6,267.59,200.67,392.46,201.38,392.83l-38.93,74.57h0Zm31.13-729.31c-14.52,9.4-28.56,19.29-42,29.67-3.45,90.79,10.77,157.27,35.77,206.92,36.59,72.66,98.65,110.67,161.31,137.3,74.79,31.79,262.28,27.54,441.67-40.31,126.3-47.77,246.48-127.36,316.13-248.54,21.3-37.06,32.78-68.38,36.17-94.74,4.68-36.41-7.68-63.42-31.02-83.2-28.12-23.83-71.84-39.7-122.81-49.89-105.91-21.18-238.35-16.68-336.06-7.3-132.34,12.7-317.75,58.54-459.14,150.08h0Zm-30.78-80.12c151.94-93.46,344.04-140.52,482-153.77,104.06-9.99,245.64-14.68,360.48,8.29,63.84,12.77,120.55,34.3,160.76,68.37,3.79,3.21,7.43,6.52,10.92,9.93,19.82-124.02,87.08-216.02,156.77-287.6,101.95-104.73,211.74-201.73,321.52-298.73,52.81-46.66,105.64-93.34,161.87-144.93,7.75-7.11,13.02-13.79,16.08-19.91,2.8-5.6,3.72-10.67,3.04-15.04-.66-4.27-3.11-8.7-7.02-12.97-4.4-4.8-10.23-9.07-17.26-12.58-27.72-13.86-107.33-35.79-181-56.08-50.44-13.89-98.22-27.06-128-37.38-54.5-18.88-101.53-60.05-151.52-103.82-70.5-61.72-147.87-129.45-245.62-122.78-42.3,2.89-123.23,21.7-178.38,82.69-3.07,3.4-6.07,6.94-8.97,10.63,131-60.27,266.94-71.52,383.32,35.79,37.83,34.87,71.99,102.24,76.11,175.86,3.22,57.66-11.29,119.81-55.6,174.55l-.17.33c-49.25,59.57-120.86,88.01-196.03,89.92-40.05,1.02-81.19-5.63-120.36-19.2-39.36-13.64-76.66-34.13-108.8-60.71-61.63-50.95-105.47-124.31-110.95-215.19-65.01,49.58-124.76,103.85-173.39,148.2l-8.34,7.6c-129.53,117.99-355.71,324.02-430.73,689.76-4.19,20.41-7.74,39.98-10.7,58.75h0Zm768.34-998.02c-20.04,10.21-39.99,21.68-59.7,34.05-1.58,14.53-2.23,30.03-1.81,46.57,1.75,68.88,34.41,124.69,81.08,163.28,24.64,20.37,52.88,35.96,82.41,46.19,29.72,10.3,60.83,15.35,90.99,14.58,51.74-1.32,100.43-20.17,133.01-59.57l.06.05c29.2-36.22,38.74-77.77,36.57-116.53-2.85-50.99-24.84-96.11-49.06-118.44-90.93-83.84-204.12-65.95-313.56-10.18Z"/>
</svg>